<?xml version="1.0" ?><svg data-name="Layer 1" id="Layer_1" viewBox="0 0 512 512" xmlns="http://www.w3.org/2000/svg"><path d="M450.87,249.53c12.87-13.51,27.8-41.32,14.05-70.42-10.26-21.71-31.76-27-45.07-28.12a44.46,44.46,0,0,0,3.81-7.08c5.74-13.52,3.73-27.83-5.68-40.28-16.28-21.56-43.1-17-59.23-11.5,9.41-28.64-9.29-54.21-27-63.9-10.29-5.65-34.54-10.51-59.09-.72-15.15,6-35.39,20-45.77,52.4a152.51,152.51,0,0,0-6.4,29.89h-49.8a27.76,27.76,0,1,0,0,10.31h49c-1.58,38,11.64,66.11,15.63,73.67a131.64,131.64,0,0,0-3.37,19.3H183.88l-48.1-22.16a27.84,27.84,0,1,0-5.83,8.66l50.65,23.33a5.11,5.11,0,0,0,2.15.47h48.67c0,.85,0,1.7,0,2.56a94.85,94.85,0,0,0,5.22,32.38H89.33a27.73,27.73,0,1,0-.53,10.31H241.26a63.62,63.62,0,0,0,5.13,7.85c-3.45,4.85-8.84,14.74-12.14,32.24h-81.1A5.17,5.17,0,0,0,148.9,311l-20.5,29.81a27.86,27.86,0,1,0,8.71,5.52L155.86,319h76.83a203.05,203.05,0,0,0-1.31,23.77c0,19,3.12,32.13,7.27,41.24h-28a5.15,5.15,0,0,0-4.59,2.82l-24.27,47.68H142a27.77,27.77,0,1,0,0,10.31h43a5.15,5.15,0,0,0,4.59-2.82l24.27-47.68h31.08a32.54,32.54,0,0,0,8.3,7.39c-7.94,7.32-13.88,17.47-15.93,31.33-3.65,24.77,11,46,37.25,54.14a66.13,66.13,0,0,0,19.35,2.9c17.51,0,35.17-7,45-23.11,15.51,4.35,68.87,15,92-35.13,8.91-19.3,8.32-39.47-1.26-57.27,14.67-4.07,45.26-18,48.11-63.77C480,273.89,461.45,256.41,450.87,249.53ZM143.46,132.41A17.46,17.46,0,1,1,160.91,115,17.48,17.48,0,0,1,143.46,132.41Zm-33.23,65.11a17.46,17.46,0,1,1,17.46-17.46A17.48,17.48,0,0,1,110.23,197.52Zm-48.4,82a17.46,17.46,0,1,1,17.46-17.46A17.48,17.48,0,0,1,61.83,279.51ZM118.21,384a17.46,17.46,0,1,1,17.45-17.45A17.47,17.47,0,0,1,118.21,384Zm-3.53,73.11a17.46,17.46,0,1,1,17.46-17.45A17.48,17.48,0,0,1,114.68,457.14Zm352.77-147c-2.75,44-34,53.44-43.69,55.31q-1.85-2.44-3.94-4.82a79,79,0,0,0-27.48-19.95,53.44,53.44,0,0,0,8.18-31c-.83-19.53-14.8-28.18-22.08-30a5.15,5.15,0,0,0-2.58,10c.56.15,13.67,3.9,14.37,20.48a42.65,42.65,0,0,1-7.92,27.05c-11.57-3.16-23.44-3.3-34,.13a5.15,5.15,0,0,0,3.18,9.8c9.43-3.06,20.17-2.65,30.57.66a4.82,4.82,0,0,0,1.15.37,68.65,68.65,0,0,1,28.95,19.37,64.93,64.93,0,0,1,5.13,6.58,1,1,0,0,0,.08.11c10.95,16.2,12.55,35.24,4.19,53.35-23.09,50-80.93,29.34-83.37,28.45a5.16,5.16,0,0,0-6.42,2.57c-9.86,20.28-34.7,24.8-54.14,18.78-16.06-5-33.58-19.15-30.09-42.78,6.8-46,64.06-39.4,66.49-39.1a5.15,5.15,0,0,0,1.29-10.22c-13.89-1.76-35.52-.5-52.6,9.52a5.17,5.17,0,0,0-1.65-.65c-.2,0-19.35-5.16-19.35-51.33a187.36,187.36,0,0,1,1.68-26,5.15,5.15,0,0,0,.71-4.49c2.58-14.83,6.7-23.55,9.49-28a52.92,52.92,0,0,0,20.9,11.78,4.92,4.92,0,0,0,1.42.2,5.15,5.15,0,0,0,1.41-10.1,44.66,44.66,0,0,1-20.07-12.63,3.37,3.37,0,0,0-.32-.45,5.45,5.45,0,0,0-.5-.46,51.24,51.24,0,0,1-7.14-10.58,5.33,5.33,0,0,0-.8-1.62c-4-8.51-6.78-19.73-6.78-34.49,0-40.38,20.39-66.4,20.6-66.66a5.15,5.15,0,0,0-8-6.45c-.53.66-7.94,10.06-14.18,26.24-7-17.64-16.84-53.86-3.32-96,7.35-22.92,20.73-38.39,39.78-46,20-8,41.43-4.69,50.32.18C342.26,45.72,358.69,68.91,347,94a25.16,25.16,0,0,1-3.06,5c-.13.15-.25.31-.37.47-7,8.56-18.67,11.19-28.3,9.74C307,107.92,297,103,295.59,93.1a5.15,5.15,0,1,0-10.2,1.43c1.78,12.76,12.89,22.5,28.31,24.81,12.6,1.92,27.84-1.61,37.41-12.9,6.08-3,41.6-19.19,58.65,3.4,9.09,12,7.42,23,4.42,30A38.62,38.62,0,0,1,405.84,152a4.92,4.92,0,0,0-.66.63c-5.63,5.37-12.33,8.79-17.77,9.45a5.15,5.15,0,0,0,.62,10.27,4.4,4.4,0,0,0,.62,0c7.71-.93,15.81-5.17,22.54-11.25,7-.33,33.79,0,44.41,22.43,14.49,30.64-9.47,57.49-16.67,63a5.17,5.17,0,0,0,1.25,8.89C441.41,255.89,470.1,267.79,467.45,310.18Z"/><path d="M389.71,203.56c-32.72,23.63-56.29,4.78-62.68-1.47,4.13-21.3-9.62-37.51-10.27-38.25a5.15,5.15,0,0,0-7.79,6.74c.51.6,12,14.32,7.47,31.62h0c-.23.88-.48,1.76-.8,2.65-6.93,19.74-23.1,30.79-23.25,30.9a5.15,5.15,0,0,0,2.87,9.43,5.08,5.08,0,0,0,2.85-.86,77.8,77.8,0,0,0,25.52-31.63c6.8,5.44,18.88,12.76,34.65,12.76,10.91,0,23.57-3.5,37.47-13.54a5.15,5.15,0,1,0-6-8.35Z"/></svg>